HIERARCHY
ROOT Hips
{
	OFFSET -3.958830 18.904000 13.208200
	CHANNELS 6 Xposition Yposition Zposition Zrotation Yrotation Xrotation 
	JOINT LHipJoint
	{
		OFFSET 0.000000 0.000000 0.000000
		CHANNELS 3 Zrotation Yrotation Xrotation
		JOINT LeftUpLeg
		{
			OFFSET 1.800000 -1.400000 0.085000
			CHANNELS 3 Zrotation Yrotation Xrotation
			JOINT LeftLeg
			{
				OFFSET 2.215000 -6.000000 0.000000
				CHANNELS 3 Zrotation Yrotation Xrotation
				JOINT LeftFoot
				{
					OFFSET 2.500000 -6.900000 0.000000
					CHANNELS 3 Zrotation Yrotation Xrotation
					JOINT LeftToeBase
					{
						OFFSET 0.200000 -0.500000 1.950000
						CHANNELS 3 Zrotation Yrotation Xrotation
						End Site
						{
							OFFSET 0.000000 0.000000 0.000000
						}
					}
				}
			}
		}
	}
	JOINT RHipJoint
	{
		OFFSET 0.000000 0.000000 0.000000
		CHANNELS 3 Zrotation Yrotation Xrotation
		JOINT RightUpLeg
		{
			OFFSET -1.800000 -1.400000 0.085000
			CHANNELS 3 Zrotation Yrotation Xrotation
			JOINT RightLeg
			{
				OFFSET -2.215000 -6.000000 0.000000
				CHANNELS 3 Zrotation Yrotation Xrotation
				JOINT RightFoot
				{
					OFFSET -2.500000 -6.900000 0.000000
					CHANNELS 3 Zrotation Yrotation Xrotation
					JOINT RightToeBase
					{
						OFFSET -0.200000 -0.500000 1.950000
						CHANNELS 3 Zrotation Yrotation Xrotation
						End Site
						{
							OFFSET 0.000000 0.000000 0.000000
						}
					}
				}
			}
		}
	}
	JOINT LowerBack
	{
		OFFSET 0.000000 0.000000 0.000000
		CHANNELS 3 Zrotation Yrotation Xrotation
		JOINT Spine
		{
			OFFSET -0.087000 1.940000 -0.288900
			CHANNELS 3 Zrotation Yrotation Xrotation
			JOINT Spine1
			{
				OFFSET 0.000000 1.950000 0.060000
				CHANNELS 3 Zrotation Yrotation Xrotation
				JOINT Neck
				{
					OFFSET 0.000000 0.000000 0.000000
					CHANNELS 3 Zrotation Yrotation Xrotation
					JOINT Neck1
					{
						OFFSET 0.000000 1.600000 0.340000
						CHANNELS 3 Zrotation Yrotation Xrotation
						JOINT Head
						{
							OFFSET 0.000000 1.667000 -0.240000
							CHANNELS 3 Zrotation Yrotation Xrotation
							End Site
							{
								OFFSET 0.000000 0.000000 0.000000
							}
						}
					}
				}
				JOINT LeftShoulder
				{
					OFFSET 0.000000 0.000000 0.000000
					CHANNELS 3 Zrotation Yrotation Xrotation
					JOINT LeftArm
					{
						OFFSET 2.700000 1.550000 -0.730000
						CHANNELS 3 Zrotation Yrotation Xrotation
						JOINT LeftForeArm
						{
							OFFSET 5.450000 0.000000 0.000000
							CHANNELS 3 Zrotation Yrotation Xrotation
							JOINT LeftHand
							{
								OFFSET 3.450000 0.000000 0.000000
								CHANNELS 3 Zrotation Yrotation Xrotation
								JOINT LeftHandIndex1
								{
									OFFSET 0.750000 0.000000 0.000000
									CHANNELS 3 Zrotation Yrotation Xrotation
									End Site
									{
										OFFSET 0.000000 0.000000 0.000000
									}
								}
							}
						}
					}
				}
				JOINT RightShoulder
				{
					OFFSET 0.000000 0.000000 0.000000
					CHANNELS 3 Zrotation Yrotation Xrotation
					JOINT RightArm
					{
						OFFSET -2.700000 1.550000 -0.730000
						CHANNELS 3 Zrotation Yrotation Xrotation
						JOINT RightForeArm
						{
							OFFSET -5.450000 0.000000 0.000000
							CHANNELS 3 Zrotation Yrotation Xrotation
							JOINT RightHand
							{
								OFFSET -3.450000 0.000000 0.000000
								CHANNELS 3 Zrotation Yrotation Xrotation
								JOINT RightHandIndex1
								{
									OFFSET -0.750000 0.000000 0.000000
									CHANNELS 3 Zrotation Yrotation Xrotation
									End Site
									{
										OFFSET 0.000000 0.000000 0.000000
									}
								}
							}
						}
					}
				}
			}
		}
	}
}
MOTION
Frames: 9
Frame Time: 0.016667
5.852990 15.931000 2.305510 -179.607798 -63.701274 171.005471 -15.604050 14.426386 3.067002 12.522356 -6.654877 17.597629 -4.944428 11.019246 30.909412 1.713799 8.114370 1.979664 -0.360750 -0.407010 -0.197360 17.706703 -8.923759 4.698496 -4.067368 1.982840 -54.717605 7.637687 -9.277435 34.014907 -0.202459 -4.587016 2.385770 -0.633650 0.167680 0.240050 -3.709115 -5.634343 -8.510166 14.425630 -23.254994 21.785860 -9.895429 -11.684782 -31.030726 6.004568 -3.672238 -19.083233 -13.173518 4.667964 42.912755 1.087860 1.528860 14.115860 11.685030 -1.858898 8.284709 4.716167 11.785295 -2.231315 -3.828804 10.027743 -1.674040 -3.961895 2.783521 0.011450 -0.070220 0.132010 0.010460 -21.280187 3.589581 10.456911 22.721421 -18.439649 -7.303252 -19.917143 -18.601813 6.496257 4.434006 -0.810528 0.211880 -0.349800 0.007900 0.337990 
5.451360 16.000470 1.961490 177.575726 -62.603631 175.790219 -15.664208 14.483021 3.059301 11.572474 -6.900266 15.444456 -5.140864 11.055572 31.232408 1.340627 8.857185 1.867415 -1.157590 -1.626690 -0.668250 17.668404 -8.648541 4.840903 -5.327599 1.789943 -55.088392 11.269128 -9.281782 27.368500 0.222694 -4.119253 2.554442 -1.107170 0.827360 0.328430 -3.504225 -6.474136 -8.411139 17.767642 -24.456295 15.939955 -11.998002 -11.620041 -33.838635 7.386206 -4.743158 -19.330077 -11.903419 6.446738 35.111197 1.505680 2.971340 24.399890 14.307198 0.171743 9.035651 -0.147045 22.268514 -2.389962 -0.940821 -8.891299 -0.193258 -4.244396 2.976528 0.095260 0.289740 -0.367290 -0.202320 -25.958995 1.228022 8.868337 26.907855 -19.535615 -9.590637 -19.071965 -8.569195 3.892417 4.087989 -0.527605 -0.273930 -0.185730 0.720570 0.211170 
5.107190 16.051130 1.646430 172.775587 -64.246203 -178.176836 -15.655547 14.232890 2.822215 10.106391 -7.325150 9.889456 -3.399691 10.308383 36.298717 1.720082 8.630800 2.169942 -1.165590 -1.423130 -0.892350 17.685512 -8.959468 4.837625 -7.082149 0.705340 -54.612270 12.153419 -8.282134 22.482708 0.406455 -3.830852 2.860244 -1.047450 1.070920 0.235360 -3.816017 -5.804562 -8.201292 19.722255 -22.723861 11.999892 -15.250923 -11.158160 -35.879668 7.684252 -7.404028 -17.251572 -13.024403 4.903358 25.289667 1.676840 1.337710 28.421530 22.203083 9.063959 5.557877 -12.833146 5.673786 -3.672057 0.734793 -6.300998 0.254158 -4.320920 3.173254 -0.365500 0.475850 -0.563410 0.021530 -33.691452 -8.976811 4.995307 32.407285 -27.028466 -15.157519 -10.088935 17.276034 0.708459 3.410928 -1.519573 -0.163230 -0.177900 0.504330 0.481420 
4.826000 16.079680 1.350290 172.704008 -58.244894 177.017432 -15.637653 14.588346 3.288868 9.244568 -8.003565 11.911446 -6.428484 11.793300 37.501238 1.770881 8.838822 1.842877 -0.569840 -0.641080 -0.518930 17.609449 -9.205965 4.144001 -2.456849 1.333644 -47.605764 9.805876 -7.243638 22.515244 0.130406 -2.890500 3.107859 -0.699580 0.531580 0.194980 -3.732047 -6.409900 -8.017885 18.819747 -20.078809 12.394504 -12.863138 -12.547175 -35.008741 8.331310 -9.174508 -16.428773 -25.186889 10.438450 36.634783 5.323730 0.076240 19.006950 15.112375 8.417011 3.937819 -17.977484 -4.665952 -0.908583 8.279913 12.012918 0.894278 -4.116839 2.924937 -0.052720 0.065540 -0.082610 0.080480 -25.579739 -6.637928 6.271603 28.591141 -31.573725 -12.101726 -8.056511 17.291662 1.047839 3.303427 -1.246961 0.072400 -0.164240 0.201130 0.435040 
4.626880 16.066510 1.042290 169.242965 -52.891177 175.354746 -15.678642 14.884141 3.889096 8.186972 -9.386477 9.477067 -11.014727 14.162001 41.329063 1.708660 9.560512 1.372780 -0.173830 -0.257990 0.021650 17.437887 -9.457265 3.665702 0.499867 1.656730 -39.551291 6.142142 -5.504331 21.346974 -0.089468 -1.947391 3.287307 -0.507510 0.018940 0.180130 -3.039385 -6.697113 -8.592889 8.152182 -16.340733 15.035690 -5.736304 -11.555056 -30.968611 9.584302 -5.029645 -17.422332 -27.373295 14.801330 53.322247 2.499170 3.959220 9.442880 1.764855 0.349720 3.942551 -16.182902 -8.830281 2.363916 8.557025 29.881682 3.492028 -3.966749 2.783667 0.352500 -0.264650 0.323850 -0.036890 -13.511445 0.143995 10.385899 29.951320 -38.615787 -10.732257 -9.393550 16.847863 0.820611 3.226428 -0.912067 0.125980 -0.156920 0.024210 0.201300 
4.345660 16.056800 0.727300 166.933635 -48.195348 177.737403 -15.788290 14.993580 4.229657 8.088952 -10.274446 1.939742 -14.782062 15.065732 41.127022 1.885079 9.537486 1.386739 -0.374700 -0.363350 -0.192890 17.298120 -9.319557 3.536737 2.018069 2.055122 -36.015884 4.725266 -4.846927 20.407431 0.005929 -1.795659 3.468821 -0.636520 0.138080 0.211120 -2.477335 -7.407074 -8.998147 4.869880 -15.560354 12.996777 -3.751446 -10.639025 -30.433007 12.287517 -2.973566 -18.535846 -23.428977 14.244485 55.109653 -0.191170 7.043020 17.627620 -1.766316 -3.137383 6.430154 -25.767433 -3.689649 1.124456 11.867156 13.130509 2.116229 -3.923497 2.857421 0.170260 -0.110880 0.275880 -0.012290 -14.086750 2.283323 10.232118 41.696840 -35.365263 -13.339235 -13.038057 11.904793 1.048881 3.393817 -0.805827 0.185630 -0.215020 0.067860 0.304130 
4.080810 16.042630 0.471870 166.034597 -44.779560 176.541036 -15.763830 14.986990 4.380128 9.071494 -10.076809 -4.035540 -16.365146 14.801744 39.512994 1.598107 9.072850 1.369945 -0.171830 -0.224440 0.138400 17.289630 -9.511721 3.289764 2.603151 1.932810 -30.475755 3.336789 -4.818473 21.703664 -0.157198 -1.870326 3.356434 -0.554980 -0.143080 0.187040 -2.398988 -7.302641 -8.985267 3.662433 -15.753748 13.963203 -3.826346 -10.982341 -30.669483 12.923227 -1.695398 -17.976703 -21.548479 16.725548 60.129181 -1.406180 11.713150 11.579950 -5.788410 -2.264519 6.313692 -28.736441 2.221033 -1.236021 13.890950 -0.780126 0.627007 -3.584291 2.922810 0.378560 -0.289960 0.440390 -0.095730 -11.468398 0.906068 9.868789 47.152692 -30.256898 -13.861609 -13.232192 11.535178 1.094411 3.401308 -0.789028 0.182930 -0.259820 -0.040020 0.138070 
3.944780 15.984180 0.313210 166.668571 -30.533015 171.571093 -15.691611 14.662931 4.350177 13.554301 -6.823403 -7.263313 -21.437061 15.683756 32.355659 1.277947 8.540623 1.377652 0.021960 -0.000340 0.452030 17.447032 -9.472857 3.333326 8.827505 3.274036 -23.059398 -3.684598 -3.166780 25.286727 -0.470031 -2.153312 3.256710 -0.442040 -0.425690 0.159620 -2.205855 -6.346165 -9.265746 2.878461 -10.258709 17.430485 -2.369970 -6.781640 -23.984106 10.919555 0.736456 -20.390319 -16.599036 16.265132 75.181913 -8.661140 16.674350 -1.360350 -21.192264 -9.300828 6.893669 -25.419117 8.050892 -2.947708 21.923236 -2.633538 0.404696 -3.470910 2.665856 0.668430 -0.462700 0.724820 -0.164830 5.161270 8.886432 12.844082 44.295246 -27.989561 -10.885738 -13.761460 7.581757 1.199020 3.258977 -0.681426 0.169040 -0.126000 -0.113360 -0.015670 
3.677170 15.919770 0.197660 169.017623 -23.583966 166.278425 -15.606754 14.707912 4.163875 19.266156 -4.787314 -10.012193 -19.141501 14.016419 28.617874 0.783708 7.934366 1.456545 0.118630 0.001030 0.632550 17.608505 -9.245651 3.288351 11.036769 3.183298 -17.634357 -4.704822 -3.587261 28.906286 -0.672198 -2.895878 2.934655 -0.369340 -0.523870 0.153300 -2.361106 -6.562671 -9.072387 7.959275 -9.682455 21.895435 -5.739584 -4.783046 -17.661247 9.972422 0.624088 -21.281141 -16.618661 17.182885 75.833732 -10.869020 18.386900 -8.078250 -29.004439 -13.722307 7.218772 -24.246504 5.297647 -2.310598 16.085181 -2.360123 -0.067876 -3.392240 2.614297 0.841620 -0.529290 0.751970 -0.229630 13.054409 14.046159 12.842536 44.405334 -20.073156 -8.228674 -11.421449 1.079805 1.665753 3.259967 -0.705039 0.072600 -0.106210 -0.110330 -0.159760 
